<svg xmlns="http://www.w3.org/2000/svg" viewBox="0 0 302.294 244.806">
  <defs>
    <style>
      .cls-1 {
        fill: none;
        stroke: #fff700;
        stroke-width: 4px;
      }
    </style>
  </defs>
  <path id="Exclusion_5" data-name="Exclusion 5" class="cls-1" d="M291.6,1351.806c-2.2,0-6.729-1.171-13.448-3.48-2.175-.663-3.473-1.9-3.859-3.663.007.012.011.017.017.017.137,0,.2-3.361.2-10.276A130.73,130.73,0,0,1,276,1314.428a109.255,109.255,0,0,1,4.46-18.329,97.838,97.838,0,0,0,25.982,14.732c4.7-18.268,10.673-39.239,17.748-62.331,6.032-19.883,11.674-37.262,16.769-51.654s9.777-26.177,13.922-35.041c19.617-1.679,38.992-3.861,57.587-6.487,3.866-.576,6.75-1.018,8.573-1.313a101.7,101.7,0,0,0-21.593-22.776,6.977,6.977,0,0,0-.586.676c-2.625,3.255-5.233,5.117-7.752,5.537-14.172,2.1-22.741,3.164-25.471,3.164-5.773-5.249-9.925-7.91-12.34-7.91-1.575,0-4.076,3.46-7.435,10.283a508.848,508.848,0,0,0-88.119,15.82c-.463.126-.909.251-1.325.37h0l0,0a102.856,102.856,0,0,1,15.556-19.733,99.951,99.951,0,0,1,19.756-15.2,96.269,96.269,0,0,1,107.717,7,13.392,13.392,0,0,1,5.953-3.117,45.931,45.931,0,0,1,10.072-1.428c.242-.011.49-.017.736-.017a10.683,10.683,0,0,1,5.53,1.349,9.074,9.074,0,0,1,3.542,4.047c.314.524,1.485,4.836,3.48,12.814a11.943,11.943,0,0,1,.317,2.532,5.463,5.463,0,0,1-1.425,3.836,8.965,8.965,0,0,1-4.271,2.333c-.093.047-.859.187-2.343.427a104.086,104.086,0,0,1,13.661,27.945,107.171,107.171,0,0,1-2.9,72.161,104.3,104.3,0,0,1-9.146,17.5,103.007,103.007,0,0,1-12.113,15.245,100.805,100.805,0,0,1-14.681,12.579,98.107,98.107,0,0,1-16.851,9.5,96.149,96.149,0,0,1-72.572,1.9c-2.689,10.451-5.022,20.245-6.932,29.109a27.521,27.521,0,0,1-3.323,8.9C294.877,1350.808,293.334,1351.806,291.6,1351.806Zm106.9-119.321c-1.166,0-2.68,1.041-4.5,3.093-3.827,4.247-7.565,11.3-11.11,20.954-3.219,8.865-4.946,15.867-5.133,20.813a12.74,12.74,0,0,0,4.219,10.476,17.281,17.281,0,0,0,10.758,4.149,21.339,21.339,0,0,0,5.413.913c3.594,0,6.906-1.609,9.844-4.781,5.551-5.971,9.9-14.488,12.938-25.312,1.913-6.859,2.93-12.443,3.023-16.594a11.411,11.411,0,0,0-2.038-7.031c-2.24-3.406-4.3-5.133-6.117-5.133a12.35,12.35,0,0,0-3.516.773c-3.031,1.259-5.065,2.134-6.046,2.6C402.694,1234.141,400.092,1232.485,398.506,1232.485Zm-42.187.422c-1.214,0-2.728.994-4.5,2.953-3.825,4.292-7.539,11.294-11.039,20.813-3.266,8.772-5.017,15.727-5.2,20.672a13.118,13.118,0,0,0,3.867,10.476,15.9,15.9,0,0,0,10.336,4.149,20.877,20.877,0,0,0,5.485.913c2.473,0,4.224-.591,5.2-1.758a57.614,57.614,0,0,0,9.774-16.1,3.85,3.85,0,0,0,.351-1.407c0-.746-.307-1.125-.913-1.125a3.01,3.01,0,0,0-2.039,1.336,78.243,78.243,0,0,1-10.143,11.162c-2.9,2.484-5.382,3.768-7.365,3.814-.086,0-.174,0-.259,0a5.435,5.435,0,0,1-4.921-2.637c-1.088-1.75-1.64-4.413-1.64-7.914a37.642,37.642,0,0,1,.773-7.171,74.555,74.555,0,0,1,3.938-13.149,60.653,60.653,0,0,1,7.524-14.485c2.379-3.079,4.414-4.64,6.046-4.64a4.9,4.9,0,0,1,1.125.176,4.843,4.843,0,0,0,1.055.176c2.007,0,3.071,1.064,3.164,3.163.14,2.474-.594,6-2.18,10.477-.607.467-.914.916-.914,1.336,0,.933,1.325,2.14,3.938,3.587a3.589,3.589,0,0,0,1.7.517c.94,0,1.694-.6,2.239-1.782,2.007-4.433,3.024-10.347,3.024-17.579a3.4,3.4,0,0,0-1.389-2.953,7.248,7.248,0,0,0-4.166-.984,16.576,16.576,0,0,0-5.7,1.055C359.943,1233.948,357.531,1232.907,356.318,1232.907ZM280.462,1296.1h0a101.562,101.562,0,0,1-13.832-13.219,103.434,103.434,0,0,1-11.215-15.714,104.577,104.577,0,0,1-8.213-17.807,105.81,105.81,0,0,1-4.828-19.5c1.124,1.678,2.357,3.48,3.667,5.353,1.364,1.995,2.907,3.006,4.587,3.006,2.414,0,3.639-1.331,3.639-3.955a8.134,8.134,0,0,0-1.107-3.8,131.3,131.3,0,0,1-7.832-16.612c-1.732-4.672-2.61-8.557-2.61-11.548a17.181,17.181,0,0,1,2.373-8.425,34.479,34.479,0,0,1,7.119-8.5c2.78-2.466,7.171-4.9,13.052-7.239a175.854,175.854,0,0,1,22.386-6.841,326.1,326.1,0,0,1,48.727-7.6c-1.052,3.472-7.653,23.325-19.617,59.01-10.6,31.6-17.416,53.047-20.25,63.756a29.923,29.923,0,0,1-4.509-.87,18.963,18.963,0,0,0-3.718-.712c-2.31,0-4.439,2.4-6.328,7.12-.526,1.354-1.026,2.73-1.489,4.091Zm152.989-3.5c-.84,0-2.141-.686-3.867-2.039-3.033-1.866-4.57-4.066-4.57-6.538a7.98,7.98,0,0,1,.14-1.407,51.874,51.874,0,0,1,3.085-11.311,96.551,96.551,0,0,1,6.3-12.981,108.284,108.284,0,0,1,8.481-12.718,87.928,87.928,0,0,1,9.624-10.52c2.144-2.008,4.093-3.026,5.791-3.026h.116c1.82.093,5.108,2.341,9.773,6.68a1.615,1.615,0,0,1,.633,1.2c0,.746-.5,1.125-1.476,1.125a3.026,3.026,0,0,1-1.055-.211,11.182,11.182,0,0,0-4.336-1.021,6.122,6.122,0,0,0-3.681,1.162c-4.386,3.267-9.283,9.015-14.554,17.085-6.112,9.332-9.756,17.849-10.829,25.313a2.891,2.891,0,0,0,.348,2.256,1.339,1.339,0,0,0,1.059.416c1.54,0,3.456-1.112,5.7-3.3a193.75,193.75,0,0,0,16.8-19.265c6.112-7.978,10.086-14.081,11.812-18.14a47.339,47.339,0,0,0,2.32-6.469c4.853-17.172,10.342-32.051,16.312-44.226,4.665-9.518,8.829-16,12.375-19.265a5.67,5.67,0,0,1,3.8-1.9c1.305,0,3.008.781,5.063,2.32,2.294,1.882,4.683,3.822,7.1,5.766a1.781,1.781,0,0,1,.844,1.406c0,.886-.568,1.336-1.688,1.336a3.013,3.013,0,0,1-1.336-.351,12.943,12.943,0,0,0-4.921-1.617c-2.893,0-6.134,2.886-9.633,8.578-12.831,20.949-22.317,49.243-28.2,84.094a71.482,71.482,0,0,0,4.922-5.485c1.213-1.446,2.112-2.18,2.672-2.18.523,0,.854.126.982.376.181.351-.031.958-.63,1.8a51.789,51.789,0,0,0-8.93,20.18c-.56,1.726-1.27,2.6-2.11,2.6a2.922,2.922,0,0,1-1.547-.633c-2.333-1.587-3.658-2.533-3.938-2.813a4.73,4.73,0,0,1-1.406-3.586,13.579,13.579,0,0,1,.351-2.812c2.007-10.78,3.687-18.918,4.992-24.187a222.685,222.685,0,0,1-15.575,19.793c-5.762,6.555-10.008,10.754-12.621,12.48C435.945,1291.916,434.431,1292.6,433.451,1292.6Zm65.953-.07c-2.193,0-5.008-1.538-8.367-4.57a10.835,10.835,0,0,1-3.955-2.883,5.846,5.846,0,0,1-1.318-3.727,9.908,9.908,0,0,1,.14-1.617,117.53,117.53,0,0,1,5.133-21.3c-1.726-.886-2.6-1.738-2.6-2.531,0-.653.5-.985,1.476-.985a4.973,4.973,0,0,1,2.321.633c4.152-9.332,7.938-16.051,11.25-19.969,2.146-2.613,4.109-3.937,5.836-3.937.792,0,2.779.686,5.906,2.039-.233-1.4.17-2.228,1.2-2.461h3.3c2.007,0,3.024.355,3.024,1.055a8.934,8.934,0,0,1-.212,1.2,8.806,8.806,0,0,0-.211,1.828c0,1.679.024,3.784.07,6.258s.07,4.154.07,4.992a20.372,20.372,0,0,1-1.2,7.4,10.429,10.429,0,0,1-3.585,4.764,16.422,16.422,0,0,1-9.844,3.163,49.149,49.149,0,0,1-9.563-1.547,39.036,39.036,0,0,0-2.671,8.509,55.341,55.341,0,0,0-1.829,14.2c.047,2.426.827,3.656,2.32,3.656a7.648,7.648,0,0,0,2.18-.421c5.413-1.914,13.054-7.828,22.712-17.579a2.644,2.644,0,0,1,1.828-.913c.886,0,1.336.426,1.336,1.265a2.586,2.586,0,0,1-.7,1.617,137,137,0,0,1-14.555,16.4C504.907,1290.693,501.713,1292.532,499.4,1292.532Zm14.625-55.687a4.455,4.455,0,0,0-2.25,1.125c-4.572,3.685-8.641,10.238-12.093,19.476.925.14,2.582.282,4.922.422.261.01.523.015.78.015,3.392,0,5.992-.88,7.728-2.617,1.4-1.4,2.18-3.741,2.32-6.961-.044.725-.069.809-.085.809a16.6,16.6,0,0,1-.1-2.382c-.021-1.583-.032-3.987-.032-7.146C515.224,1237.767,514.822,1236.845,514.029,1236.845Zm-121.341,51.968a5.219,5.219,0,0,1-4.76-2.639c-1.053-1.751-1.587-4.414-1.587-7.916a37.651,37.651,0,0,1,.774-7.171,79.278,79.278,0,0,1,3.8-13.219c2.334-6.254,4.889-11.1,7.594-14.414.374.887.751,1.337,1.125,1.337a12.229,12.229,0,0,0,2.18-.774l10.9-4.429a7.906,7.906,0,0,1,1.828-.282c1.213,0,1.829.994,1.829,2.953,0,.845-.161,2.8-.492,5.977a75.5,75.5,0,0,1-6.047,22.43,58.021,58.021,0,0,1-5.326,10.02,22.762,22.762,0,0,1-5.713,6.011,11.234,11.234,0,0,1-5.765,2.11C392.908,1288.81,392.8,1288.813,392.688,1288.813Zm-150.317-58.959c-6.249-9.332-10.5-16.9-12.627-22.487-1.784-4.618-3.062-11.378-3.8-20.093a18.644,18.644,0,0,1,1.265-8.85,21.668,21.668,0,0,1,5.5-7.634,40.887,40.887,0,0,1,9.735-6.419,85.227,85.227,0,0,1,13.971-5.2,105.649,105.649,0,0,0-15.212,54.844,107.981,107.981,0,0,0,1.165,15.839Z" transform="translate(-223.86 -1109)"/>
</svg>
