<svg xmlns="http://www.w3.org/2000/svg" viewBox="0 0 138.376 112.401">
  <defs>
    <style>
      .cls-1 {
        fill: none;
        stroke: white;
        stroke-width: 4px;
      }
    </style>
  </defs>
  <path id="Exclusion_5" data-name="Exclusion 5" class="cls-1" d="M255.567,1219.4a24.442,24.442,0,0,1-6.06-1.569,2.252,2.252,0,0,1-1.738-1.647s.006,0,.007,0a42.207,42.207,0,0,0,.092-4.63,53.62,53.62,0,0,1,2.7-17.311,45.73,45.73,0,0,1-11.349-13.044,46.929,46.929,0,0,1-5.9-16.854c.5.752,1.078,1.6,1.717,2.51a2.581,2.581,0,0,0,2.067,1.354c1.088,0,1.64-.6,1.64-1.782a3.666,3.666,0,0,0-.5-1.711c-3.122-5.724-4.705-9.994-4.705-12.69,0-2.506,1.439-5.073,4.278-7.628,2.507-2.223,7.88-4.358,15.969-6.345a147.128,147.128,0,0,1,21.957-3.422c-.477,1.573-3.451,10.519-8.84,26.59-4.778,14.239-7.848,23.905-9.125,28.73a13.434,13.434,0,0,1-2.032-.392,8.585,8.585,0,0,0-1.675-.32c-1.04,0-2,1.079-2.852,3.208-.228.588-.448,1.191-.653,1.794a43.879,43.879,0,0,0,11.718,6.584c-1.226,4.76-2.286,9.208-3.151,13.223C258.327,1217.6,257.128,1219.4,255.567,1219.4Zm21.793-15.854a42.97,42.97,0,0,1-15.077-2.715c2.119-8.224,4.8-17.638,7.97-27.982,5.437-17.922,10.09-31.066,13.829-39.067,8.82-.753,17.551-1.736,25.95-2.922,1.473-.219,2.7-.407,3.55-.542A45.689,45.689,0,0,0,304,1120.181c1.1-1.293,3.579-2.04,7.382-2.224.12,0,.229-.007.333-.007a4.152,4.152,0,0,1,4.087,2.431c.142.238.67,2.18,1.568,5.774a5.36,5.36,0,0,1,.143,1.14c0,1.372-.864,2.307-2.567,2.781-.048.024-.5.1-1.369.242a47.871,47.871,0,0,1,4.835,44.967,46.249,46.249,0,0,1-9.549,14.709,44.369,44.369,0,0,1-14.163,9.917A42.869,42.869,0,0,1,277.359,1203.547Zm26.241-37.8c-.526,0-1.21.47-2.031,1.4-1.727,1.917-3.414,5.1-5.015,9.458a33.781,33.781,0,0,0-2.317,9.4,5.751,5.751,0,0,0,1.9,4.729,7.8,7.8,0,0,0,4.855,1.873,9.654,9.654,0,0,0,2.444.412,5.989,5.989,0,0,0,4.443-2.158c2.506-2.7,4.47-6.54,5.839-11.426a32.337,32.337,0,0,0,1.365-7.491,5.147,5.147,0,0,0-.921-3.173c-1.011-1.538-1.94-2.318-2.761-2.318a5.6,5.6,0,0,0-1.587.349c-1.369.569-2.287.964-2.73,1.175C305.492,1166.49,304.317,1165.743,303.6,1165.743Zm-19.043.19c-.547,0-1.23.448-2.031,1.333-1.726,1.937-3.4,5.1-4.982,9.4a32.673,32.673,0,0,0-2.349,9.331,5.919,5.919,0,0,0,1.746,4.729,7.176,7.176,0,0,0,4.665,1.873,9.448,9.448,0,0,0,2.476.412,2.949,2.949,0,0,0,2.349-.794,26.009,26.009,0,0,0,4.412-7.267,1.745,1.745,0,0,0,.158-.635c0-.337-.139-.508-.413-.508a1.36,1.36,0,0,0-.92.6c-3.454,4.444-6.113,6.719-7.9,6.761l-.116,0a2.455,2.455,0,0,1-2.222-1.191,6.907,6.907,0,0,1-.74-3.572,16.981,16.981,0,0,1,.349-3.237,33.591,33.591,0,0,1,1.778-5.935,27.4,27.4,0,0,1,3.4-6.538c1.074-1.39,1.992-2.1,2.73-2.1a2.226,2.226,0,0,1,.508.08,2.187,2.187,0,0,0,.476.079,1.3,1.3,0,0,1,1.428,1.428,13.2,13.2,0,0,1-.984,4.729c-.274.211-.413.413-.413.6,0,.421.6.966,1.777,1.619a1.624,1.624,0,0,0,.767.233c.424,0,.764-.271,1.011-.8a19.536,19.536,0,0,0,1.364-7.934c0-1.179-.843-1.777-2.507-1.777a7.477,7.477,0,0,0-2.571.476A8.87,8.87,0,0,0,284.557,1165.933Zm34.817,26.946a3.529,3.529,0,0,1-1.746-.921,3.154,3.154,0,0,1-2-3.587,31.993,31.993,0,0,1,4.237-10.966,43.922,43.922,0,0,1,8.173-10.49,4.129,4.129,0,0,1,2.614-1.365h.051c.821.042,2.305,1.056,4.412,3.015a.73.73,0,0,1,.285.54c0,.337-.224.508-.666.508a1.355,1.355,0,0,1-.476-.1,5.051,5.051,0,0,0-1.957-.461,2.76,2.76,0,0,0-1.661.525,30.612,30.612,0,0,0-6.57,7.712c-2.759,4.211-4.4,8.056-4.888,11.426a1.3,1.3,0,0,0,.156,1.018.6.6,0,0,0,.478.188,4.2,4.2,0,0,0,2.571-1.491,87.554,87.554,0,0,0,7.585-8.7,44.191,44.191,0,0,0,5.332-8.188,21.322,21.322,0,0,0,1.048-2.92,119.963,119.963,0,0,1,7.364-19.964c2.107-4.3,3.986-7.224,5.585-8.7a2.56,2.56,0,0,1,1.714-.858,4.252,4.252,0,0,1,2.286,1.048c1.049.861,2.127,1.736,3.2,2.6a.806.806,0,0,1,.381.634c0,.4-.256.6-.761.6a1.35,1.35,0,0,1-.6-.158,5.836,5.836,0,0,0-2.221-.73c-1.305,0-2.769,1.3-4.349,3.872-5.792,9.457-10.074,22.228-12.727,37.959a32.473,32.473,0,0,0,2.222-2.476c.547-.653.953-.984,1.206-.984.236,0,.385.057.443.169.082.158-.014.432-.285.814a23.387,23.387,0,0,0-4.031,9.109c-.253.779-.573,1.175-.952,1.175a1.32,1.32,0,0,1-.7-.285c-1.053-.717-1.652-1.144-1.778-1.27a2.138,2.138,0,0,1-.635-1.619,6.092,6.092,0,0,1,.158-1.269c.908-4.876,1.666-8.55,2.254-10.918a100.432,100.432,0,0,1-7.031,8.934,36.754,36.754,0,0,1-5.7,5.633A4.375,4.375,0,0,1,319.375,1192.879Zm29.77-.031c-.99,0-2.261-.694-3.777-2.063-1.579-.737-2.38-1.741-2.38-2.984a4.461,4.461,0,0,1,.063-.73,53.01,53.01,0,0,1,2.317-9.617c-.779-.4-1.174-.784-1.174-1.142,0-.3.224-.445.666-.445a2.251,2.251,0,0,1,1.048.285,40.078,40.078,0,0,1,5.078-9.014c.97-1.179,1.856-1.777,2.634-1.777a10.251,10.251,0,0,1,2.666.921c-.1-.632.077-1.006.54-1.11h1.491c.906,0,1.365.16,1.365.476a3.984,3.984,0,0,1-.1.539,3.943,3.943,0,0,0-.1.825c0,.753.01,1.677.032,2.825.021,1.116.032,1.875.032,2.254,0,2.611-.726,4.458-2.158,5.49a7.411,7.411,0,0,1-4.443,1.428,22.126,22.126,0,0,1-4.316-.7,17.589,17.589,0,0,0-1.206,3.84,24.976,24.976,0,0,0-.825,6.412c.021,1.1.373,1.651,1.047,1.651a3.463,3.463,0,0,0,.985-.191c2.444-.864,5.893-3.533,10.251-7.934a1.193,1.193,0,0,1,.825-.412c.4,0,.6.192.6.571a1.163,1.163,0,0,1-.318.73C354.882,1189.526,351.23,1192.847,349.145,1192.847Zm6.6-25.137a2.015,2.015,0,0,0-1.016.508c-2.063,1.662-3.9,4.621-5.458,8.792.424.063,1.172.127,2.221.19.118,0,.237.007.354.007a4.745,4.745,0,0,0,3.486-1.181,4.64,4.64,0,0,0,1.048-3.142,1.545,1.545,0,0,1-.038.365c-.038-.037-.057-1.484-.057-4.3C356.286,1168.127,356.1,1167.71,355.747,1167.71Zm-54.772,23.458a2.355,2.355,0,0,1-2.148-1.191,7.105,7.105,0,0,1-.716-3.573,16.981,16.981,0,0,1,.349-3.237,35.824,35.824,0,0,1,1.714-5.967,23.346,23.346,0,0,1,3.428-6.506c.168.4.339.6.508.6a5.433,5.433,0,0,0,.984-.349l4.919-2a3.6,3.6,0,0,1,.825-.127c.548,0,.825.448.825,1.333,0,.382-.075,1.29-.222,2.7a34.078,34.078,0,0,1-2.729,10.124c-1.538,3.6-3.215,6.037-4.983,7.237a5.074,5.074,0,0,1-2.6.952C301.074,1191.167,301.024,1191.169,300.974,1191.169Zm-67.656-26.821h0a55.171,55.171,0,0,1-5.623-10.033,34.511,34.511,0,0,1-1.711-9.054,8.684,8.684,0,0,1,3.033-7.413c2.267-2.1,5.844-3.858,10.633-5.233a47.453,47.453,0,0,0-6.847,24.659,48.512,48.512,0,0,0,.517,7.073Zm6.329-31.733,0,0h0a45.647,45.647,0,0,1,15.858-15.675A43.082,43.082,0,0,1,277.359,1111a43,43,0,0,1,14.282,2.428A43.86,43.86,0,0,1,304,1120.181c-.027.032-.058.07-.1.129a6.151,6.151,0,0,1-3.494,2.495c-6.386.946-10.248,1.426-11.477,1.426-2.6-2.365-4.473-3.564-5.561-3.564-.71,0-1.837,1.559-3.351,4.633a229.527,229.527,0,0,0-39.708,7.129c-.242.066-.458.127-.661.185Z" transform="translate(-223.941 -1109)"/>
</svg>
